<svg width="32" height="32" viewBox="0 0 32 32" fill="none" xmlns="http://www.w3.org/2000/svg">
<path d="M21.6 11.4C25.4 11.4 27.6 13.4 27.6 16.4C27.6 19.4 25.4 21.4 22 21.8" stroke="url(#af_asa)" stroke-width="2.4" stroke-linecap="round"/>
<path d="M6.4 6.2C6.4 5.2 7.2 4.4 8.2 4.4H21C22 4.4 22.8 5.2 22.8 6.2V27.4C22.8 28.9 21.6 30 20.2 30H9C7.6 30 6.4 28.9 6.4 27.4V6.2Z" fill="url(#af_jarra)"/>
<path d="M7.6 10.8H21.6V27.2C21.6 28.2 20.8 29 19.8 29H9.4C8.4 29 7.6 28.2 7.6 27.2V10.8Z" fill="url(#af_agua)"/>
<path d="M7.6 10.8H21.6V27.2C21.6 28.2 20.8 29 19.8 29H9.4C8.4 29 7.6 28.2 7.6 27.2V10.8Z" fill="url(#af_agua_sombra)"/>
<ellipse cx="14.6" cy="10.9" rx="7" ry="0.9" fill="#FF9DB6"/>
<rect x="9.4" y="14" width="3.2" height="3.2" rx="0.8" transform="rotate(14 11 15.6)" fill="#F4FEFF" fill-opacity="0.85"/>
<rect x="15.2" y="17.6" width="3" height="3" rx="0.8" transform="rotate(-12 16.7 19.1)" fill="#F4FEFF" fill-opacity="0.85"/>
<rect x="11" y="22" width="2.8" height="2.8" rx="0.7" transform="rotate(20 12.4 23.4)" fill="#F4FEFF" fill-opacity="0.8"/>
<path d="M17.4 12.4C18.6 11.6 20 12 20.4 13.4C20.8 14.8 19.6 15.8 18.4 15.4C17.4 15 16.8 13.4 17.4 12.4Z" fill="#E0204B" fill-opacity="0.8"/>
<path d="M8.4 7.4V26" stroke="#FFFFFF" stroke-opacity="0.65" stroke-width="1.2" stroke-linecap="round"/>
<path d="M5.4 5.2C5.4 4.3 6.1 3.6 7 3.6H22.2C23.1 3.6 23.8 4.3 23.8 5.2C23.8 6 23.1 6.6 22.2 6.6H7C6.1 6.6 5.4 6 5.4 5.2Z" fill="url(#af_borde)"/>
<path d="M22 3.8L25 2.6" stroke="#D9EEF8" stroke-width="1.8" stroke-linecap="round"/>
<defs>
<linearGradient id="af_asa" x1="24" y1="11" x2="24" y2="22" gradientUnits="userSpaceOnUse"><stop stop-color="#E4FBFF"/><stop offset="1" stop-color="#B6DEEF"/></linearGradient>
<linearGradient id="af_jarra" x1="14.6" y1="4.4" x2="14.6" y2="30" gradientUnits="userSpaceOnUse"><stop stop-color="#EDFCFF"/><stop offset="1" stop-color="#C3E6F4"/></linearGradient>
<linearGradient id="af_agua" x1="14.6" y1="10.8" x2="14.6" y2="29" gradientUnits="userSpaceOnUse"><stop stop-color="#FF8FAB"/><stop offset="1" stop-color="#EE4A73"/></linearGradient>
<radialGradient id="af_agua_sombra" cx="0" cy="0" r="1" gradientUnits="userSpaceOnUse" gradientTransform="translate(21 28) rotate(-115) scale(12 6)"><stop stop-color="#B21C47" stop-opacity="0.5"/><stop offset="1" stop-color="#B21C47" stop-opacity="0"/></radialGradient>
<linearGradient id="af_borde" x1="14.6" y1="3.6" x2="14.6" y2="6.6" gradientUnits="userSpaceOnUse"><stop stop-color="#FFFFFF"/><stop offset="1" stop-color="#CDEFFB"/></linearGradient>
</defs>
</svg>
