<svg width="32" height="32" viewBox="0 0 32 32" fill="none" xmlns="http://www.w3.org/2000/svg">
<path d="M2.4 15.4H29.6C29.6 23 23.5 29 16 29C8.5 29 2.4 23 2.4 15.4Z" fill="url(#cv_plato)"/>
<path d="M2.4 15.4H29.6C29.6 23 23.5 29 16 29C8.5 29 2.4 23 2.4 15.4Z" fill="url(#cv_plato_sombra)"/>
<ellipse cx="16" cy="15.4" rx="13.6" ry="4.2" fill="url(#cv_borde)"/>
<path d="M5.4 15.2C5.4 11.6 10.2 9.4 16 9.4C21.8 9.4 26.6 11.6 26.6 15.2C26.6 16.4 25.6 17.2 24.2 17.2H7.8C6.4 17.2 5.4 16.4 5.4 15.2Z" fill="url(#cv_montaña)"/>
<rect x="8.4" y="12.6" width="2.6" height="2.2" rx="0.6" transform="rotate(-12 9.7 13.7)" fill="#FFFDF6"/>
<rect x="13.4" y="10.6" width="2.6" height="2.2" rx="0.6" transform="rotate(10 14.7 11.7)" fill="#FFFDF6"/>
<rect x="18.6" y="12" width="2.6" height="2.2" rx="0.6" transform="rotate(-6 19.9 13.1)" fill="#FFFDF6"/>
<rect x="15.6" y="14.2" width="2.4" height="2" rx="0.6" transform="rotate(16 16.8 15.2)" fill="#FFFDF6"/>
<rect x="11.2" y="14.6" width="2.2" height="2" rx="0.5" fill="url(#cv_jitomate)"/>
<rect x="21.8" y="14.6" width="2.2" height="2" rx="0.5" transform="rotate(12 22.9 15.6)" fill="url(#cv_jitomate)"/>
<rect x="16.6" y="11.4" width="2" height="1.8" rx="0.5" transform="rotate(-10 17.6 12.3)" fill="url(#cv_jitomate)"/>
<circle cx="12.4" cy="11.6" r="0.9" fill="#6FC04A"/>
<circle cx="20.4" cy="10.8" r="0.8" fill="#6FC04A"/>
<circle cx="9" cy="15.6" r="0.7" fill="#6FC04A"/>
<circle cx="19.4" cy="15.8" r="0.7" fill="#F4F0FF"/>
<path d="M22.6 9.6C22.6 6.8 25 5.2 27.6 6C29.6 6.6 29.8 8.8 28.4 10L24.4 11.6C23.4 11.4 22.6 10.6 22.6 9.6Z" fill="url(#cv_aguacate)"/>
<ellipse cx="25.8" cy="8.6" rx="1.2" ry="1" fill="#8A5A3A"/>
<defs>
<linearGradient id="cv_plato" x1="16" y1="15.4" x2="16" y2="29" gradientUnits="userSpaceOnUse"><stop stop-color="#FFFFFF"/><stop offset="1" stop-color="#D8E3F0"/></linearGradient>
<radialGradient id="cv_plato_sombra" cx="0" cy="0" r="1" gradientUnits="userSpaceOnUse" gradientTransform="translate(26 26) rotate(-135) scale(12 8)"><stop stop-color="#8FA3BF" stop-opacity="0.55"/><stop offset="1" stop-color="#8FA3BF" stop-opacity="0"/></radialGradient>
<linearGradient id="cv_borde" x1="16" y1="11.2" x2="16" y2="19.6" gradientUnits="userSpaceOnUse"><stop stop-color="#FFFFFF"/><stop offset="1" stop-color="#DCE6F2"/></linearGradient>
<radialGradient id="cv_montaña" cx="0.45" cy="0.35" r="0.8"><stop stop-color="#FFE9A8"/><stop offset="1" stop-color="#EBC46A"/></radialGradient>
<radialGradient id="cv_jitomate" cx="0.4" cy="0.3" r="0.8"><stop stop-color="#FF7A6B"/><stop offset="1" stop-color="#E0302A"/></radialGradient>
<radialGradient id="cv_aguacate" cx="0.45" cy="0.35" r="0.8"><stop stop-color="#E4F08A"/><stop offset="0.7" stop-color="#9CC743"/><stop offset="1" stop-color="#4E7F22"/></radialGradient>
</defs>
</svg>
