<svg width="32" height="32" viewBox="0 0 32 32" fill="none" xmlns="http://www.w3.org/2000/svg">
<ellipse cx="16" cy="20.6" rx="15" ry="8.4" fill="url(#en_plato)"/>
<ellipse cx="16" cy="20.6" rx="15" ry="8.4" fill="url(#en_plato_sombra)"/>
<g transform="rotate(-14 16 19)">
<rect x="4.6" y="12.4" width="22.8" height="4.4" rx="2.2" fill="url(#en_rollo)"/>
<rect x="4.6" y="16.6" width="22.8" height="4.4" rx="2.2" fill="url(#en_rollo)"/>
<rect x="4.6" y="20.8" width="22.8" height="4.4" rx="2.2" fill="url(#en_rollo)"/>
<g transform="translate(16 0) scale(0.72 1) translate(-16 0)">
<path d="M5.6 13.6C8.4 11.8 11.4 14.8 14.4 12.8C17.4 10.8 20.4 14 23.4 12.4C25 11.6 26.4 12.2 27.2 13.4C27.8 17.4 27.4 21.4 26.4 24.8C23.4 26.2 20.4 23.6 17.4 25.2C14.4 26.8 11.4 23.8 8.4 25.4C6.8 26.2 5.4 25.4 4.8 24.2C4.2 20.6 4.4 16.8 5.6 13.6Z" fill="url(#en_salsa)"/>
</g>
<g transform="translate(16 0) scale(0.72 1) translate(-16 0)">
<path d="M7 15.6C9.4 14.8 11.2 16.4 13.6 15.6C16 14.8 17.8 16.4 20.2 15.6C22.2 15 23.8 15.6 25 16.2M7.4 20.2C9.8 19.4 11.6 21 14 20.2C16.4 19.4 18.2 21 20.6 20.2C22.6 19.6 24 20.2 25.2 20.8" stroke="#FFFBF0" stroke-width="1.4" stroke-linecap="round"/>
</g>
<ellipse cx="6.4" cy="14.6" rx="1.4" ry="1.9" fill="#F6CE84"/><ellipse cx="6.4" cy="18.8" rx="1.4" ry="1.9" fill="#F6CE84"/><ellipse cx="6.4" cy="23" rx="1.4" ry="1.9" fill="#F6CE84"/>
<path d="M6.2 14.2C6.8 14.4 6.9 15.2 6.3 15.3M6.2 18.4C6.8 18.6 6.9 19.4 6.3 19.5M6.2 22.6C6.8 22.8 6.9 23.6 6.3 23.7" stroke="#C98A3E" stroke-width="0.5" stroke-linecap="round"/>
</g>
<rect x="11.8" y="15.4" width="1.8" height="1.4" rx="0.4" fill="#FFFDF6"/>
<rect x="18.8" y="13.2" width="1.7" height="1.3" rx="0.4" fill="#FFFDF6"/>
<rect x="15.4" y="21.2" width="1.8" height="1.4" rx="0.4" fill="#FFFDF6"/>
<path d="M9.4 19.6C10.4 18.8 11.8 19.2 12.2 20.2" stroke="#C54AA0" stroke-width="1" stroke-linecap="round"/>
<path d="M20.8 18.6C21.8 17.8 23.2 18.2 23.6 19.2" stroke="#C54AA0" stroke-width="1" stroke-linecap="round"/>
<defs>
<radialGradient id="en_plato" cx="0.45" cy="0.35" r="0.75"><stop stop-color="#FFFFFF"/><stop offset="1" stop-color="#D2DDEA"/></radialGradient>
<radialGradient id="en_plato_sombra" cx="0" cy="0" r="1" gradientUnits="userSpaceOnUse" gradientTransform="translate(28 26) rotate(-155) scale(14 6)"><stop stop-color="#8FA3BF" stop-opacity="0.5"/><stop offset="1" stop-color="#8FA3BF" stop-opacity="0"/></radialGradient>
<linearGradient id="en_rollo" x1="0" y1="0" x2="0" y2="1"><stop stop-color="#FFE3A0"/><stop offset="1" stop-color="#E4A650"/></linearGradient>
<radialGradient id="en_salsa" cx="0.45" cy="0.35" r="0.8"><stop stop-color="#FF6B4A" stop-opacity="0.95"/><stop offset="1" stop-color="#C8301E" stop-opacity="0.95"/></radialGradient>
</defs>
</svg>
