<svg width="32" height="32" viewBox="0 0 32 32" fill="none" xmlns="http://www.w3.org/2000/svg">
<path d="M22.6 1.8C23.3 1.2 24.4 1.4 24.8 2.2C25.2 3 24.7 3.8 24 4.2L20.4 12.6L18.6 11.9L22.6 1.8Z" fill="url(#e_cuchara)"/>
<path d="M5.4 15.4C5.4 10 10.1 6.4 16 6.4C21.9 6.4 26.6 10 26.6 15.4H5.4Z" fill="url(#e_elote)"/>
<circle cx="8.6" cy="13.6" r="1.75" fill="url(#e_grano)"/>
<circle cx="12.2" cy="13.8" r="1.75" fill="url(#e_grano)"/>
<circle cx="15.9" cy="13.9" r="1.75" fill="url(#e_grano)"/>
<circle cx="19.6" cy="13.8" r="1.75" fill="url(#e_grano)"/>
<circle cx="23.3" cy="13.6" r="1.75" fill="url(#e_grano)"/>
<circle cx="10.4" cy="10.8" r="1.75" fill="url(#e_grano)"/>
<circle cx="14" cy="10.3" r="1.75" fill="url(#e_grano)"/>
<circle cx="17.7" cy="10.3" r="1.75" fill="url(#e_grano)"/>
<circle cx="21.3" cy="10.9" r="1.75" fill="url(#e_grano)"/>
<circle cx="12.3" cy="7.9" r="1.6" fill="url(#e_grano)"/>
<circle cx="15.9" cy="7.4" r="1.6" fill="url(#e_grano)"/>
<circle cx="19.5" cy="8" r="1.6" fill="url(#e_grano)"/>
<path d="M9.6 12.2C11.4 10.6 13.6 12.4 15.6 11.2C17.6 10 19.8 12 22.2 11.6" stroke="#FFFDF5" stroke-width="1.4" stroke-linecap="round"/>
<circle cx="12.8" cy="9.6" r="0.45" fill="#E0422B"/>
<circle cx="16.8" cy="9" r="0.45" fill="#E0422B"/>
<circle cx="20.2" cy="10" r="0.45" fill="#E0422B"/>
<circle cx="10.6" cy="13" r="0.4" fill="#E0422B"/>
<circle cx="18.4" cy="13" r="0.4" fill="#E0422B"/>
<circle cx="14.4" cy="12.6" r="0.4" fill="#E0422B"/>
<path d="M5.6 15.2H26.4L24.2 28.2C24 29.3 23 30.2 21.8 30.2H10.2C9 30.2 8 29.3 7.8 28.2L5.6 15.2Z" fill="url(#e_vaso)"/>
<path d="M5.6 15.2H26.4L24.2 28.2C24 29.3 23 30.2 21.8 30.2H10.2C9 30.2 8 29.3 7.8 28.2L5.6 15.2Z" fill="url(#e_vaso_luz)"/>
<path d="M5.6 15.2H26.4L24.2 28.2C24 29.3 23 30.2 21.8 30.2H10.2C9 30.2 8 29.3 7.8 28.2L5.6 15.2Z" fill="url(#e_vaso_sombra)"/>
<rect x="4.6" y="14.4" width="22.8" height="2.2" rx="1.1" fill="url(#e_borde)"/>
<defs>
<linearGradient id="e_cuchara" x1="23.6" y1="1.6" x2="19.4" y2="12.4" gradientUnits="userSpaceOnUse"><stop stop-color="#F4EEFF"/><stop offset="1" stop-color="#BDB6CC"/></linearGradient>
<linearGradient id="e_elote" x1="16" y1="6.4" x2="16" y2="15.4" gradientUnits="userSpaceOnUse"><stop stop-color="#FFE56A"/><stop offset="1" stop-color="#E9A800"/></linearGradient>
<radialGradient id="e_grano" cx="0.36" cy="0.3" r="0.78"><stop stop-color="#FFF7B0"/><stop offset="0.55" stop-color="#FFD84A"/><stop offset="1" stop-color="#DE9C08"/></radialGradient>
<linearGradient id="e_vaso" x1="16" y1="15.2" x2="16" y2="30.2" gradientUnits="userSpaceOnUse"><stop stop-color="#FDFBFF"/><stop offset="1" stop-color="#DAD4E8"/></linearGradient>
<radialGradient id="e_vaso_luz" cx="0" cy="0" r="1" gradientUnits="userSpaceOnUse" gradientTransform="translate(10 19.5) rotate(80) scale(8 3)"><stop stop-color="#FFFFFF" stop-opacity="0.95"/><stop offset="1" stop-color="#FFFFFF" stop-opacity="0"/></radialGradient>
<radialGradient id="e_vaso_sombra" cx="0" cy="0" r="1" gradientUnits="userSpaceOnUse" gradientTransform="translate(25 28) rotate(-130) scale(11 8)"><stop stop-color="#A69BBF" stop-opacity="0.65"/><stop offset="1" stop-color="#A69BBF" stop-opacity="0"/></radialGradient>
<linearGradient id="e_borde" x1="16" y1="14.4" x2="16" y2="16.6" gradientUnits="userSpaceOnUse"><stop stop-color="#FFFFFF"/><stop offset="1" stop-color="#E2DCEF"/></linearGradient>
</defs>
</svg>
