<svg width="32" height="32" viewBox="0 0 32 32" fill="none" xmlns="http://www.w3.org/2000/svg">
<rect x="1.8" y="21.6" width="28.4" height="6.8" rx="2" fill="url(#mk_tabla)"/>
<g>
<path d="M3 16.6C3 13.8 5.6 11.8 9 11.8C12.4 11.8 15 13.8 15 16.6V20.6C15 23.4 12.4 25.4 9 25.4C5.6 25.4 3 23.4 3 20.6V16.6Z" fill="url(#mk_alga)"/>
<ellipse cx="9" cy="16.6" rx="6" ry="4.8" fill="url(#mk_alga_top)"/>
<ellipse cx="9" cy="16.6" rx="5" ry="3.9" fill="url(#mk_arroz)"/>
<ellipse cx="9" cy="16.6" rx="2.2" ry="1.7" fill="url(#mk_salmon)"/>
<ellipse cx="10.4" cy="17.2" rx="1" ry="0.8" fill="url(#mk_pepino)"/>
</g>
<g>
<path d="M17 14.6C17 11.8 19.6 9.8 23 9.8C26.4 9.8 29 11.8 29 14.6V18.6C29 21.4 26.4 23.4 23 23.4C19.6 23.4 17 21.4 17 18.6V14.6Z" fill="url(#mk_alga)"/>
<ellipse cx="23" cy="14.6" rx="6" ry="4.8" fill="url(#mk_alga_top)"/>
<ellipse cx="23" cy="14.6" rx="5" ry="3.9" fill="url(#mk_arroz)"/>
<ellipse cx="23" cy="14.6" rx="2.2" ry="1.7" fill="url(#mk_salmon)"/>
<ellipse cx="24.4" cy="15.2" rx="1" ry="0.8" fill="url(#mk_pepino)"/>
</g>
<circle cx="6.6" cy="15" r="0.3" fill="#FFFFFF"/>
<circle cx="20.8" cy="13" r="0.3" fill="#FFFFFF"/>
<path d="M13.4 8.4C14.2 6.4 16.4 5.8 17.8 7.2L15 9.8C14 9.8 13.2 9.2 13.4 8.4Z" fill="url(#mk_wasabi)"/>
<defs>
<linearGradient id="mk_tabla" x1="16" y1="21.6" x2="16" y2="28.4" gradientUnits="userSpaceOnUse"><stop stop-color="#E8B87A"/><stop offset="1" stop-color="#B07A40"/></linearGradient>
<linearGradient id="mk_alga" x1="0" y1="0" x2="1" y2="0"><stop stop-color="#3E5A3A"/><stop offset="1" stop-color="#1E2E1E"/></linearGradient>
<linearGradient id="mk_alga_top" x1="0" y1="0" x2="0" y2="1"><stop stop-color="#4E6E48"/><stop offset="1" stop-color="#2A3E28"/></linearGradient>
<radialGradient id="mk_arroz" cx="0.45" cy="0.4" r="0.7"><stop stop-color="#FFFFFF"/><stop offset="1" stop-color="#ECE8DC"/></radialGradient>
<radialGradient id="mk_salmon" cx="0.4" cy="0.35" r="0.8"><stop stop-color="#FFAE8A"/><stop offset="1" stop-color="#F06A3A"/></radialGradient>
<radialGradient id="mk_pepino" cx="0.4" cy="0.35" r="0.8"><stop stop-color="#A6EC6B"/><stop offset="1" stop-color="#4DB23B"/></radialGradient>
<linearGradient id="mk_wasabi" x1="15.4" y1="6" x2="15.4" y2="9.8" gradientUnits="userSpaceOnUse"><stop stop-color="#B8E860"/><stop offset="1" stop-color="#6FAF22"/></linearGradient>
</defs>
</svg>
